<?xml version="1.0" encoding="UTF-8"?>
<svg id="Livello_1" data-name="Livello 1" xmlns="http://www.w3.org/2000/svg" viewBox="0 0 2000 952.38">
  <defs>
    <style>
      .cls-1 {
        fill: #fff;
      }
    </style>
  </defs>
  <path class="cls-1" d="M1523.81,0c-262.99,0-476.19,213.2-476.19,476.19s213.2,476.19,476.19,476.19,476.19-213.2,476.19-476.19S1786.8,0,1523.81,0ZM1523.81,761.91c-157.8,0-285.71-127.92-285.71-285.71s127.92-285.71,285.71-285.71,285.72,127.92,285.72,285.71-127.92,285.71-285.72,285.71Z"/>
  <path class="cls-1" d="M921.8,380.95h-129.33s-30.57-.76-30.57-30.57v-129.33c0-16.88-13.69-30.57-30.57-30.57h-129.33s-30.57-.77-30.57-30.57V30.58C571.42,13.7,557.73.01,540.85.01h-129.33c-16.88,0-30.57,13.69-30.57,30.57v129.33c0,29.8-30.57,30.57-30.57,30.57h-129.33c-16.88,0-30.57,13.69-30.57,30.57v129.33c0,29.81-30.57,30.57-30.57,30.57H30.57c-16.88,0-30.57,13.69-30.57,30.57v129.33c0,16.88,13.69,30.57,30.57,30.57h129.33s30.57.77,30.57,30.57v129.33c0,16.88,13.69,30.57,30.57,30.57h129.33s30.57.77,30.57,30.57v129.33c0,16.88,13.69,30.57,30.57,30.57h129.33c16.88,0,30.57-13.69,30.57-30.57v-129.33c0-29.8,30.57-30.57,30.57-30.57h129.33c16.88,0,30.57-13.69,30.57-30.57v-129.33c0-29.8,30.57-30.57,30.57-30.57h129.33c16.88,0,30.57-13.69,30.57-30.57v-129.33c0-16.88-13.69-30.57-30.57-30.57ZM731.32,571.43h-129.33c-16.88,0-30.57,13.69-30.57,30.57v129.33c0,30.95-30.57,30.57-30.57,30.57h-129.33s-30.57.38-30.57-30.57v-129.33c0-16.88-13.69-30.57-30.57-30.57h-129.33s-30.57.38-30.57-30.57v-129.33c0-30.95,30.57-30.57,30.57-30.57h129.33c16.88,0,30.57-13.69,30.57-30.57v-129.33c0-30.95,30.57-30.57,30.57-30.57h129.33s30.57-.38,30.57,30.57v129.33c0,16.88,13.69,30.57,30.57,30.57h129.33s30.57-.38,30.57,30.57v129.33c0,30.95-30.57,30.57-30.57,30.57Z"/>
</svg>