<?xml version="1.0" encoding="UTF-8"?>
<svg id="Livello_1" data-name="Livello 1" xmlns="http://www.w3.org/2000/svg" viewBox="0 0 4000 741.02">
  <defs>
    <style>
      .cls-1 {
        fill: #fff;
      }
    </style>
  </defs>
  <path class="cls-1" d="M2815.87,0C2611.25,0,2445.36,165.88,2445.36,370.51s165.88,370.51,370.51,370.51,370.51-165.88,370.51-370.51S3020.5,0,2815.87,0ZM2815.87,592.82c-122.78,0-222.31-99.53-222.31-222.31s99.53-222.31,222.31-222.31,222.31,99.53,222.31,222.31-99.53,222.31-222.31,222.31Z"/>
  <path class="cls-1" d="M3976.21,148.2h-100.63s-23.79.29-23.79-23.79V23.79c0-13.14-10.65-23.79-23.79-23.79h-100.63c-13.14,0-23.79,10.65-23.79,23.79v100.63c0,24.08-23.79,23.79-23.79,23.79h-100.63s-23.79.29-23.79-23.79V23.79c0-13.14-10.65-23.79-23.79-23.79h-100.63c-13.14,0-23.79,10.65-23.79,23.79v100.63h0s0,0,0,0c0,24.08-23.79,23.79-23.79,23.79h-100.63c-13.14,0-23.79,10.65-23.79,23.79v545.25c0,13.14,10.65,23.79,23.79,23.79h100.63c13.14,0,23.79-10.65,23.79-23.79V171.99s0,0,0-.01c0-23.18,23.78-23.77,23.78-23.77h0s0,0,0,0h100.63s23.79.6,23.79,23.79v545.25c0,13.14,10.65,23.79,23.79,23.79h100.63c13.14,0,23.79-10.65,23.79-23.79V171.99c0-23.19,23.79-23.79,23.79-23.79h100.63s23.79.6,23.79,23.79v545.25c0,13.14,10.65,23.79,23.79,23.79h100.63c13.14,0,23.79-10.65,23.79-23.79V171.99c0-13.14-10.65-23.79-23.79-23.79Z"/>
  <path class="cls-1" d="M2347.47,148.2h-100.63s-23.79.29-23.79-23.79V23.79c0-13.14-10.65-23.79-23.79-23.79h-397.03c-13.14,0-23.79,10.65-23.79,23.79v100.63h0s0,0,0,0c0,24.08-23.79,23.79-23.79,23.79h-100.63c-13.14,0-23.79,10.65-23.79,23.79v545.25c0,13.14,10.65,23.79,23.79,23.79h100.63c13.14,0,23.79-10.65,23.79-23.79V171.99s0,0,0-.01c0-23.18,23.78-23.77,23.78-23.77h0s0,0,0,0h397.03s23.79.6,23.79,23.79v545.25c0,13.14,10.65,23.79,23.79,23.79h100.63c13.14,0,23.79-10.65,23.79-23.79V171.99c0-13.14-10.65-23.79-23.79-23.79Z"/>
  <path class="cls-1" d="M717.22,148.2h-100.63s-23.79.29-23.79-23.79V23.79c0-13.14-10.65-23.79-23.79-23.79h-100.63c-13.14,0-23.79,10.65-23.79,23.79v100.63c0,24.08-23.79,23.79-23.79,23.79h-100.63s-23.79.29-23.79-23.79V23.79c0-13.14-10.65-23.79-23.79-23.79h-100.63c-13.14,0-23.79,10.65-23.79,23.79v100.63h0s0,0,0,0c0,24.08-23.79,23.79-23.79,23.79H23.79c-13.14,0-23.79,10.65-23.79,23.79v545.25c0,13.14,10.65,23.79,23.79,23.79h100.63c13.14,0,23.79-10.65,23.79-23.79V171.99s0,0,0-.01c0-23.18,23.78-23.77,23.78-23.77h0s0,0,0,0h100.63s23.79.6,23.79,23.79v545.25c0,13.14,10.65,23.79,23.79,23.79h100.63c13.14,0,23.79-10.65,23.79-23.79V171.99c0-23.19,23.79-23.79,23.79-23.79h100.63s23.79.6,23.79,23.79v545.25c0,13.14,10.65,23.79,23.79,23.79h100.63c13.14,0,23.79-10.65,23.79-23.79V171.99c0-13.14-10.65-23.79-23.79-23.79Z"/>
  <path class="cls-1" d="M1532.36,296.41h-100.63s-23.79-.59-23.79-23.79v-100.63c0-13.14-10.65-23.79-23.79-23.79h-100.63s-23.79-.6-23.79-23.79V23.79c0-13.14-10.65-23.79-23.79-23.79h-100.63c-13.14,0-23.79,10.65-23.79,23.79v100.63c0,23.19-23.79,23.79-23.79,23.79h-100.63c-13.14,0-23.79,10.65-23.79,23.79v100.63c0,23.19-23.79,23.79-23.79,23.79h-100.63c-13.14,0-23.79,10.65-23.79,23.79v100.63c0,13.14,10.65,23.79,23.79,23.79h100.63s23.79.6,23.79,23.79v100.63c0,13.14,10.65,23.79,23.79,23.79h100.63s23.79.6,23.79,23.79v100.63c0,13.14,10.65,23.79,23.79,23.79h100.63c13.14,0,23.79-10.65,23.79-23.79v-100.63c0-23.19,23.79-23.79,23.79-23.79h100.63c13.14,0,23.79-10.65,23.79-23.79v-100.63c0-23.19,23.79-23.79,23.79-23.79h100.63c13.14,0,23.79-10.65,23.79-23.79v-100.63c0-13.14-10.65-23.79-23.79-23.79ZM1384.15,444.61h-100.63c-13.14,0-23.79,10.65-23.79,23.79v100.63c0,24.08-23.79,23.79-23.79,23.79h-100.63s-23.79.29-23.79-23.79v-100.63c0-13.14-10.65-23.79-23.79-23.79h-100.63s-23.79.29-23.79-23.79v-100.63c0-24.08,23.79-23.79,23.79-23.79h100.63c13.14,0,23.79-10.65,23.79-23.79v-100.63c0-24.08,23.79-23.79,23.79-23.79h100.63s23.79-.29,23.79,23.79v100.63c0,13.14,10.65,23.79,23.79,23.79h100.63s23.79-.29,23.79,23.79v100.63c0,24.08-23.79,23.79-23.79,23.79Z"/>
</svg>